<?xml version="1.0" encoding="UTF-8"?>
<svg xmlns="http://www.w3.org/2000/svg" xmlns:xlink="http://www.w3.org/1999/xlink" viewBox="0 0 512 512" width="512px" height="512px">
<g id="surface43044221">
<path style=" stroke:none;fill-rule:nonzero;fill:rgb(0%,58.431375%,83.529413%);fill-opacity:1;" d="M 256 64 L 191.894531 131.734375 L 127.679688 199.359375 L 64 266.667969 L 64 64 Z M 256 64 "/>
<path style=" stroke:none;fill-rule:nonzero;fill:rgb(97.254902%,53.725493%,3.529412%);fill-opacity:1;" d="M 256 64 L 255.574219 64 L 191.679688 131.519531 L 127.574219 199.253906 L 64 266.347656 L 64 448 L 448 64 Z M 256 64 "/>
<path style=" stroke:none;fill-rule:nonzero;fill:rgb(97.254902%,53.725493%,3.529412%);fill-opacity:1;" d="M 156.691406 355.308594 L 64 448 L 64 267.625 Z M 156.691406 355.308594 "/>
<path style=" stroke:none;fill-rule:nonzero;fill:rgb(97.254902%,53.725493%,3.529412%);fill-opacity:1;" d="M 222.613281 289.386719 L 156.691406 355.308594 L 64 267.625 L 64 266.667969 L 127.679688 199.359375 Z M 222.613281 289.386719 "/>
<path style=" stroke:none;fill-rule:nonzero;fill:rgb(97.254902%,53.725493%,3.529412%);fill-opacity:1;" d="M 288.640625 223.359375 L 222.613281 289.386719 L 127.679688 199.359375 L 191.894531 131.734375 Z M 288.640625 223.359375 "/>
<path style=" stroke:none;fill-rule:nonzero;fill:rgb(97.254902%,53.725493%,3.529412%);fill-opacity:1;" d="M 354.667969 157.332031 L 288.640625 223.359375 L 191.894531 131.734375 L 256 64 Z M 354.667969 157.332031 "/>
<path style=" stroke:none;fill-rule:nonzero;fill:rgb(97.254902%,53.725493%,3.529412%);fill-opacity:1;" d="M 448 64 L 354.667969 157.332031 L 256 64 Z M 448 64 "/>
<path style=" stroke:none;fill-rule:nonzero;fill:rgb(0%,58.431375%,83.529413%);fill-opacity:1;" d="M 122.773438 204.265625 L 85.226562 244.054688 L 64 224 L 64 148.691406 Z M 122.773438 204.265625 "/>
<path style=" stroke:none;fill-rule:nonzero;fill:rgb(0%,58.431375%,83.529413%);fill-opacity:1;" d="M 160.320312 164.480469 L 122.773438 204.265625 L 64 148.691406 L 64 73.28125 Z M 160.320312 164.480469 "/>
<path style=" stroke:none;fill-rule:nonzero;fill:rgb(0%,58.431375%,83.529413%);fill-opacity:1;" d="M 197.972656 124.800781 L 160.320312 164.480469 L 64 73.28125 L 64 64 L 133.652344 64 Z M 197.972656 124.800781 "/>
<path style=" stroke:none;fill-rule:nonzero;fill:rgb(0%,58.431375%,83.529413%);fill-opacity:1;" d="M 235.519531 85.011719 L 197.972656 124.800781 L 133.652344 64 L 256 64 Z M 235.519531 85.011719 "/>
<path style=" stroke:none;fill-rule:nonzero;fill:rgb(0%,58.431375%,83.529413%);fill-opacity:1;" d="M 245.332031 266.667969 L 64 448 L 426.667969 448 Z M 245.332031 266.667969 "/>
<path style=" stroke:none;fill-rule:nonzero;fill:rgb(0%,58.431375%,83.529413%);fill-opacity:1;" d="M 273.921875 448 L 186.878906 448 L 125.441406 386.667969 L 168.960938 343.148438 Z M 273.921875 448 "/>
<path style=" stroke:none;fill-rule:nonzero;fill:rgb(0%,58.431375%,83.529413%);fill-opacity:1;" d="M 361.171875 448 L 273.921875 448 L 168.960938 343.148438 L 212.480469 299.625 Z M 361.171875 448 "/>
<path style=" stroke:none;fill-rule:nonzero;fill:rgb(0%,58.431375%,83.529413%);fill-opacity:1;" d="M 448 448 L 361.171875 448 L 212.480469 299.625 L 256 256 Z M 448 448 "/>
</g>
</svg>
